<mxfile host="65bd71144e">
    <diagram id="G7TEHU1j-NbJSg5bNbcc" name="Page-1">
        <mxGraphModel dx="433" dy="635" grid="1" gridSize="10" guides="1" tooltips="1" connect="1" arrows="1" fold="1" page="1" pageScale="1" pageWidth="850" pageHeight="1100" math="0" shadow="0">
            <root>
                <mxCell id="0"/>
                <mxCell id="1" parent="0"/>
                <mxCell id="2" value="" style="rounded=0;whiteSpace=wrap;html=1;" vertex="1" parent="1">
                    <mxGeometry x="420" y="379.999375" width="170" height="20" as="geometry"/>
                </mxCell>
                <mxCell id="3" value="" style="rounded=0;whiteSpace=wrap;html=1;fillStyle=auto;fontFamily=Helvetica;fontSize=11;fontColor=#000000;fillColor=#FFFFFF;" vertex="1" parent="1">
                    <mxGeometry x="205.99500000000006" y="250" width="100" height="70" as="geometry"/>
                </mxCell>
                <mxCell id="4" style="edgeStyle=none;rounded=0;jumpStyle=none;orthogonalLoop=1;jettySize=auto;html=1;strokeWidth=1;fontFamily=Helvetica;fontSize=11;fontColor=#000000;endArrow=none;endFill=0;startSize=5;endSize=5;sourcePerimeterSpacing=0;" edge="1" parent="1" source="5" target="6">
                    <mxGeometry relative="1" as="geometry">
                        <Array as="points">
                            <mxPoint x="299.99500000000006" y="200"/>
                        </Array>
                    </mxGeometry>
                </mxCell>
                <mxCell id="5" value="TGBT 230V Poste B" style="text;html=1;strokeColor=none;fillColor=none;align=left;verticalAlign=middle;whiteSpace=wrap;rounded=0;fillStyle=auto;fontFamily=Helvetica;fontSize=11;fontColor=#000000;spacingLeft=5;" vertex="1" parent="1">
                    <mxGeometry x="329.99500000000006" y="180" width="120" height="40" as="geometry"/>
                </mxCell>
                <mxCell id="6" value="" style="ellipse;whiteSpace=wrap;html=1;aspect=fixed;fillStyle=auto;fontFamily=Helvetica;fontSize=11;fontColor=#000000;fillColor=#000000;strokeColor=none;" vertex="1" parent="1">
                    <mxGeometry x="250.99500000000006" y="280" width="10" height="10" as="geometry"/>
                </mxCell>
                <mxCell id="7" value="" style="endArrow=none;html=1;rounded=0;strokeWidth=1;fontFamily=Helvetica;fontSize=11;fontColor=#000000;startSize=5;endSize=5;sourcePerimeterSpacing=0;jumpStyle=none;entryX=0;entryY=0;entryDx=0;entryDy=0;exitX=1;exitY=1;exitDx=0;exitDy=0;" edge="1" parent="1" source="3" target="3">
                    <mxGeometry width="50" height="50" relative="1" as="geometry">
                        <mxPoint x="279.99500000000006" y="290" as="sourcePoint"/>
                        <mxPoint x="329.99500000000006" y="240" as="targetPoint"/>
                    </mxGeometry>
                </mxCell>
                <mxCell id="8" value="" style="endArrow=none;html=1;rounded=0;strokeWidth=1;fontFamily=Helvetica;fontSize=11;fontColor=#000000;startSize=5;endSize=5;sourcePerimeterSpacing=0;jumpStyle=none;entryX=1;entryY=0;entryDx=0;entryDy=0;exitX=0;exitY=1;exitDx=0;exitDy=0;" edge="1" parent="1" source="3" target="3">
                    <mxGeometry width="50" height="50" relative="1" as="geometry">
                        <mxPoint x="279.99500000000006" y="290" as="sourcePoint"/>
                        <mxPoint x="329.99500000000006" y="240" as="targetPoint"/>
                    </mxGeometry>
                </mxCell>
                <mxCell id="9" value="" style="rounded=0;whiteSpace=wrap;html=1;fillStyle=auto;fontFamily=Helvetica;fontSize=11;fontColor=#000000;fillColor=#FFFFFF;" vertex="1" parent="1">
                    <mxGeometry x="199.99500000000006" y="420" width="410" height="40" as="geometry"/>
                </mxCell>
                <mxCell id="10" value="" style="endArrow=none;html=1;rounded=0;strokeWidth=1;fontFamily=Helvetica;fontSize=11;fontColor=#000000;startSize=5;endSize=5;sourcePerimeterSpacing=0;jumpStyle=none;entryX=1;entryY=0.5;entryDx=0;entryDy=0;dashed=1;exitX=0;exitY=0.5;exitDx=0;exitDy=0;" edge="1" parent="1" source="9" target="9">
                    <mxGeometry width="50" height="50" relative="1" as="geometry">
                        <mxPoint x="229.99500000000006" y="500" as="sourcePoint"/>
                        <mxPoint x="279.99500000000006" y="450" as="targetPoint"/>
                    </mxGeometry>
                </mxCell>
                <mxCell id="11" style="edgeStyle=none;rounded=0;jumpStyle=none;orthogonalLoop=1;jettySize=auto;html=1;strokeWidth=1;fontFamily=Helvetica;fontSize=11;fontColor=#000000;endArrow=none;endFill=0;startSize=5;endSize=5;sourcePerimeterSpacing=0;" edge="1" parent="1" source="12" target="13">
                    <mxGeometry relative="1" as="geometry">
                        <Array as="points">
                            <mxPoint x="389.99500000000006" y="390"/>
                        </Array>
                    </mxGeometry>
                </mxCell>
                <mxCell id="12" value="BT03-12&amp;nbsp; &amp;nbsp;300x100&amp;nbsp; &amp;nbsp;Ai : 2300mm" style="text;html=1;strokeColor=none;fillColor=none;align=left;verticalAlign=middle;whiteSpace=wrap;rounded=0;fillStyle=auto;fontFamily=Helvetica;fontSize=11;fontColor=#000000;spacingLeft=1;spacing=2;" vertex="1" parent="1">
                    <mxGeometry x="419.99500000000006" y="370" width="180" height="40" as="geometry"/>
                </mxCell>
                <mxCell id="13" value="" style="ellipse;whiteSpace=wrap;html=1;aspect=fixed;fillStyle=auto;fontFamily=Helvetica;fontSize=11;fontColor=#000000;fillColor=#000000;strokeColor=none;" vertex="1" parent="1">
                    <mxGeometry x="344.99500000000006" y="435" width="10" height="10" as="geometry"/>
                </mxCell>
                <mxCell id="14" value="" style="rounded=0;whiteSpace=wrap;html=1;fillStyle=auto;fontFamily=Helvetica;fontSize=11;fontColor=#000000;fillColor=#FFFFFF;rotation=90;" vertex="1" parent="1">
                    <mxGeometry x="125.315" y="344.6900000000005" width="89.37" height="40" as="geometry"/>
                </mxCell>
                <mxCell id="15" value="" style="endArrow=none;html=1;rounded=0;strokeWidth=1;fontFamily=Helvetica;fontSize=11;fontColor=#000000;startSize=5;endSize=5;sourcePerimeterSpacing=0;jumpStyle=none;entryX=1;entryY=0.5;entryDx=0;entryDy=0;dashed=1;exitX=0;exitY=0.5;exitDx=0;exitDy=0;" edge="1" parent="1" source="14" target="14">
                    <mxGeometry width="50" height="50" relative="1" as="geometry">
                        <mxPoint x="148.99500000000006" y="420" as="sourcePoint"/>
                        <mxPoint x="198.99500000000006" y="370" as="targetPoint"/>
                    </mxGeometry>
                </mxCell>
                <mxCell id="16" value="" style="endArrow=none;html=1;rounded=0;dashed=1;strokeWidth=1;fontFamily=Helvetica;fontSize=11;fontColor=#000000;startSize=5;endSize=5;sourcePerimeterSpacing=0;jumpStyle=none;entryX=0;entryY=0.5;entryDx=0;entryDy=0;exitX=1;exitY=0.5;exitDx=0;exitDy=0;" edge="1" parent="1" source="14" target="9">
                    <mxGeometry width="50" height="50" relative="1" as="geometry">
                        <mxPoint x="169.99500000000006" y="420" as="sourcePoint"/>
                        <mxPoint x="219.99500000000006" y="370" as="targetPoint"/>
                    </mxGeometry>
                </mxCell>
                <mxCell id="17" value="" style="endArrow=none;html=1;rounded=0;strokeWidth=1;fontFamily=Helvetica;fontSize=11;fontColor=#000000;startSize=5;endSize=5;sourcePerimeterSpacing=0;jumpStyle=none;entryX=0;entryY=1;entryDx=0;entryDy=0;exitX=1;exitY=1;exitDx=0;exitDy=0;" edge="1" parent="1" source="14" target="9">
                    <mxGeometry width="50" height="50" relative="1" as="geometry">
                        <mxPoint x="169.99500000000006" y="420" as="sourcePoint"/>
                        <mxPoint x="219.99500000000006" y="370" as="targetPoint"/>
                    </mxGeometry>
                </mxCell>
                <mxCell id="18" value="" style="endArrow=none;html=1;rounded=0;strokeWidth=1;fontFamily=Helvetica;fontSize=11;fontColor=#000000;startSize=5;endSize=5;sourcePerimeterSpacing=0;jumpStyle=none;entryX=1;entryY=0;entryDx=0;entryDy=0;exitX=0;exitY=0;exitDx=0;exitDy=0;" edge="1" parent="1" source="9" target="14">
                    <mxGeometry width="50" height="50" relative="1" as="geometry">
                        <mxPoint x="239.99500000000006" y="400" as="sourcePoint"/>
                        <mxPoint x="249.99500000000006" y="370" as="targetPoint"/>
                    </mxGeometry>
                </mxCell>
                <mxCell id="19" value="" style="edgeStyle=none;orthogonalLoop=1;jettySize=auto;html=1;rounded=0;endArrow=none;startSize=14;endSize=14;sourcePerimeterSpacing=8;targetPerimeterSpacing=8;curved=1;endFill=0;" edge="1" parent="1">
                    <mxGeometry width="120" relative="1" as="geometry">
                        <mxPoint x="471" y="379.999375" as="sourcePoint"/>
                        <mxPoint x="471" y="399.999375" as="targetPoint"/>
                        <Array as="points"/>
                    </mxGeometry>
                </mxCell>
                <mxCell id="20" value="" style="edgeStyle=none;orthogonalLoop=1;jettySize=auto;html=1;rounded=0;endArrow=none;startSize=14;endSize=14;sourcePerimeterSpacing=8;targetPerimeterSpacing=8;curved=1;endFill=0;" edge="1" parent="1">
                    <mxGeometry width="120" relative="1" as="geometry">
                        <mxPoint x="520" y="379.999375" as="sourcePoint"/>
                        <mxPoint x="520" y="399.999375" as="targetPoint"/>
                        <Array as="points"/>
                    </mxGeometry>
                </mxCell>
            </root>
        </mxGraphModel>
    </diagram>
</mxfile>